<svg id="lion_icon" height="512" viewBox="0 0 64 64" width="512" xmlns="http://www.w3.org/2000/svg" data-name="lion icon"><path d="m10.926 41.775h-2.926a.5.5 0 0 1 -.5-.5v-7.293a.5.5 0 0 1 1 0v6.793h2.423a.5.5 0 1 1 0 1z"/><path d="m22.162 41.775h-3.933a.5.5 0 0 1 0-1h3.933a.5.5 0 0 1 0 1z"/><path d="m22.162 25.108h-3.714a.5.5 0 0 1 0-1h3.714a.5.5 0 0 1 0 1z"/><path d="m8 34.482a.5.5 0 0 1 -.47-.67l3.12-8.577a1.711 1.711 0 0 1 1.6-1.128h6.2a.5.5 0 0 1 .5.5v6.9a.5.5 0 0 1 -.144.35l-2.44 2.477a.5.5 0 0 1 -.356.149zm9.949-9.382h-5.7a.708.708 0 0 0 -.659.47l-2.876 7.9h7.084l2.15-2.181z"/><path d="m56 41.775h-4.778a.5.5 0 0 1 0-1h4.278v-21.2h-32.838v21.2h21.255a.5.5 0 0 1 0 1h-21.755a.5.5 0 0 1 -.5-.5v-22.2a.5.5 0 0 1 .5-.5h33.838a.5.5 0 0 1 .5.5v22.2a.5.5 0 0 1 -.5.5z"/><path d="m14.577 45.427a4.152 4.152 0 1 1 4.152-4.153 4.158 4.158 0 0 1 -4.152 4.153zm0-7.3a3.152 3.152 0 1 0 3.152 3.151 3.156 3.156 0 0 0 -3.152-3.155z"/><path d="m14.577 43.427a2.152 2.152 0 1 1 2.152-2.153 2.156 2.156 0 0 1 -2.152 2.153zm0-3.3a1.152 1.152 0 1 0 1.152 1.151 1.154 1.154 0 0 0 -1.152-1.155z"/><path d="m47.57 45.427a4.152 4.152 0 1 1 4.152-4.153 4.158 4.158 0 0 1 -4.152 4.153zm0-7.3a3.152 3.152 0 1 0 3.152 3.151 3.156 3.156 0 0 0 -3.152-3.155z"/><path d="m47.57 43.427a2.152 2.152 0 1 1 2.152-2.153 2.156 2.156 0 0 1 -2.152 2.153zm0-3.3a1.152 1.152 0 1 0 1.152 1.151 1.154 1.154 0 0 0 -1.152-1.155z"/><path d="m56 35.509h-33.838a.5.5 0 0 1 0-1h33.838a.5.5 0 1 1 0 1z"/></svg>